<svg width="24" height="24" viewBox="0 0 24 24" fill="none" xmlns="http://www.w3.org/2000/svg">
<path d="M12 0C9.62663 0 7.30655 0.703788 5.33316 2.02236C3.35977 3.34094 1.8217 5.21508 0.913451 7.4078C0.0051994 9.60051 -0.232441 12.0133 0.230582 14.3411C0.693605 16.6689 1.83649 18.807 3.51472 20.4853C5.19295 22.1635 7.33115 23.3064 9.65892 23.7694C11.9867 24.2324 14.3995 23.9948 16.5922 23.0865C18.7849 22.1783 20.6591 20.6402 21.9776 18.6668C23.2962 16.6934 24 14.3734 24 12C23.9964 8.81851 22.7309 5.76838 20.4813 3.51873C18.2316 1.26908 15.1815 0.00362976 12 0V0ZM6.85715 20.8946V19.7143C6.85783 19.0325 7.12896 18.3788 7.61105 17.8968C8.09314 17.4147 8.7468 17.1435 9.42858 17.1429H14.5714C15.2532 17.1435 15.9069 17.4147 16.389 17.8968C16.871 18.3788 17.1422 19.0325 17.1429 19.7143V20.8946C15.5821 21.8059 13.8073 22.2861 12 22.2861C10.1927 22.2861 8.41786 21.8059 6.85715 20.8946V20.8946ZM18.8503 19.6509C18.8332 18.5266 18.3751 17.454 17.5748 16.6642C16.7744 15.8744 15.6958 15.4307 14.5714 15.4286H9.42858C8.30416 15.4307 7.22558 15.8744 6.42522 16.6642C5.62487 17.454 5.1668 18.5266 5.14972 19.6509C3.59535 18.2629 2.4992 16.4356 2.00643 14.4109C1.51367 12.3861 1.64752 10.2594 2.39027 8.31245C3.13301 6.36546 4.44962 4.69 6.16575 3.50791C7.88188 2.32583 9.91658 1.69288 12.0004 1.69288C14.0843 1.69288 16.119 2.32583 17.8351 3.50791C19.5512 4.69 20.8678 6.36546 21.6106 8.31245C22.3533 10.2594 22.4872 12.3861 21.9944 14.4109C21.5017 16.4356 20.4055 18.2629 18.8511 19.6509H18.8503Z" fill="#8A53FF"/>
</svg>
