<svg width="97" height="24" viewBox="0 0 97 24" fill="none" xmlns="http://www.w3.org/2000/svg">
<path d="M17.119 7.06501H12.189V22.875H5.38898V7.06501H0.458984V1.62502H17.119V7.06501ZM18.989 5.87502H22.389L24.259 7.77901C25.5963 6.55501 27.2736 5.75032 29.291 5.36502L29.699 11.791C29.155 11.8137 28.441 11.9497 27.557 12.199C26.6956 12.4483 26.1063 12.7657 25.789 13.151V22.875H18.989V5.87502ZM39.797 5.36502C45.237 5.36502 47.957 7.23501 47.957 10.975V22.875H44.557L42.619 20.937C41.9616 21.7077 41.0663 22.3083 39.933 22.739C38.7996 23.1697 37.723 23.385 36.703 23.385C35.7056 23.385 34.901 23.3057 34.289 23.147C33.677 22.9883 33.0763 22.7163 32.487 22.331C31.195 21.515 30.549 19.9963 30.549 17.775C30.549 13.695 33.6316 11.655 39.797 11.655H41.157V10.431C40.4316 10.3857 39.831 10.363 39.355 10.363C36.7936 10.363 34.595 10.669 32.759 11.281L31.943 6.41901C34.2096 5.71631 36.8276 5.36502 39.797 5.36502ZM37.417 17.027V18.421H38.811C39.8083 18.421 40.443 18.3077 40.715 18.081C41.0096 17.8543 41.157 17.5597 41.157 17.197V15.599H39.763C38.947 15.599 38.3463 15.6897 37.961 15.871C37.5983 16.0297 37.417 16.415 37.417 17.027ZM53.58 22.875L49.33 5.87502H56.13L58 16.925H58.34L60.21 5.87502H67.01L62.76 22.875H53.58ZM75.324 17.095V18.285C76.004 18.353 76.684 18.387 77.364 18.387C79.472 18.387 81.6027 18.047 83.756 17.367L84.572 22.365C82.0334 23.045 79.5174 23.385 77.024 23.385C73.8507 23.385 71.55 22.6483 70.122 21.175C68.7167 19.679 68.014 17.4123 68.014 14.375C68.014 11.3377 68.7167 9.08232 70.122 7.60902C71.55 6.11302 73.8394 5.36502 76.99 5.36502C80.1634 5.36502 82.3507 5.79572 83.552 6.65702C84.7534 7.51832 85.354 9.12772 85.354 11.485C85.354 13.4797 84.6287 14.919 83.178 15.803C81.75 16.6643 79.132 17.095 75.324 17.095ZM75.324 11.757V13.151H76.718C77.534 13.151 78.1234 13.0717 78.486 12.913C78.8714 12.7317 79.064 12.335 79.064 11.723V10.329H77.67C76.854 10.329 76.2534 10.4197 75.868 10.601C75.5054 10.7597 75.324 11.145 75.324 11.757ZM94.7187 0.265015V18.013C95.444 18.149 95.9993 18.2283 96.3847 18.251L96.0787 23.249C93.1773 23.249 91.262 23.079 90.3327 22.739C89.1767 22.3083 88.4627 21.7643 88.1907 21.107C88.0093 20.699 87.9187 20.223 87.9187 19.679V0.775017L94.7187 0.265015Z" fill="#8A53FF"/>
</svg>
