<svg width="10" height="9" viewBox="0 0 10 9" fill="none" xmlns="http://www.w3.org/2000/svg">
<path d="M5.00007 0.142822C4.15244 0.142822 3.32384 0.394175 2.61906 0.865096C1.91427 1.33602 1.36496 2.00535 1.04059 2.78846C0.716212 3.57158 0.631341 4.43329 0.796706 5.26464C0.962071 6.09598 1.37025 6.85962 1.96961 7.45899C2.56898 8.05836 3.33262 8.46654 4.16397 8.6319C4.99532 8.79727 5.85703 8.71239 6.64014 8.38802C7.42326 8.06364 8.09259 7.51433 8.56351 6.80955C9.03443 6.10477 9.28578 5.27617 9.28578 4.42854C9.28578 3.29189 8.83426 2.20181 8.03053 1.39808C7.2268 0.594351 6.13671 0.142822 5.00007 0.142822ZM5.00007 6.99996C4.49149 6.99996 3.99433 6.84915 3.57146 6.5666C3.14859 6.28405 2.81901 5.88245 2.62438 5.41258C2.42976 4.94271 2.37883 4.42568 2.47805 3.92688C2.57727 3.42807 2.82218 2.96988 3.1818 2.61026C3.54142 2.25064 3.9996 2.00574 4.49841 1.90652C4.99722 1.8073 5.51425 1.85822 5.98411 2.05285C6.45398 2.24747 6.85558 2.57706 7.13814 2.99993C7.42069 3.4228 7.5715 3.91996 7.5715 4.42854C7.57082 5.11031 7.29968 5.76397 6.81759 6.24606C6.33551 6.72815 5.68185 6.99928 5.00007 6.99996Z" fill="#8A53FF"/>
</svg>
