<svg width="64" height="27" viewBox="0 0 64 27" fill="none" xmlns="http://www.w3.org/2000/svg">
<path d="M1.63001 6.08505C1.75001 6.06505 1.87001 6.04505 2.01001 6.00505C2.57001 5.86505 3.27001 5.72505 4.11001 5.58505C4.95001 5.44505 5.79001 5.38505 6.67001 5.40505C6.85001 5.40505 7.01001 5.32505 7.13001 5.14505C7.23001 4.96505 7.27001 4.76505 7.23001 4.54505C9.85001 3.98505 12.49 3.52505 15.19 3.14505C14.91 3.56505 14.63 3.94505 14.41 4.26505C14.09 4.70505 13.77 5.14505 13.47 5.58505C13.17 6.02505 12.85 6.54505 12.47 7.16505C12.07 7.80505 11.59 8.68505 11.01 9.80505C10.45 10.9451 9.85001 12.2251 9.25001 13.6451C8.63001 15.0851 8.23001 16.545 8.01001 18.025C7.81001 19.525 7.93001 20.5651 8.41001 21.1651C8.87001 21.6251 9.47001 21.7851 10.19 21.6451C10.57 21.5251 10.79 21.325 10.83 21.005C10.85 20.705 10.69 20.485 10.31 20.365C10.19 20.345 10.09 20.3251 10.01 20.3251C9.89001 20.3451 9.81001 20.325 9.73001 20.305C9.65001 20.265 9.59001 20.1851 9.53001 20.0651C9.45001 19.8451 9.41001 19.565 9.39001 19.265C9.39001 18.965 9.41001 18.685 9.43001 18.445C9.77001 16.245 10.57 13.905 11.83 11.425C13.07 8.94505 14.39 6.76505 15.75 4.84505C15.79 4.80505 15.83 4.74505 15.87 4.68505L16.39 3.96505C16.61 3.68505 16.81 3.42505 17.03 3.20505C17.23 2.96505 17.41 2.84505 17.55 2.82505L19.79 2.54505C21.27 2.36505 22.65 2.20505 23.95 2.10505C25.25 2.00505 26.83 1.96505 28.69 2.00505C28.83 2.00505 28.95 2.00505 29.09 2.02505C29.21 2.04505 29.35 2.06505 29.47 2.06505C29.77 2.04505 29.99 1.96505 30.15 1.78505C30.29 1.60505 30.35 1.42505 30.31 1.22505C30.27 1.00505 30.11 0.86505 29.83 0.76505C29.23 0.60505 28.29 0.54505 27.01 0.60505C25.73 0.64505 24.41 0.72505 23.01 0.86505C21.63 0.98505 20.49 1.10505 19.59 1.20505C19.31 1.24505 19.09 1.26505 18.91 1.28505C18.93 0.80505 18.79 0.52505 18.47 0.44505C18.17 0.36505 17.87 0.40505 17.57 0.58505C17.27 0.78505 17.07 0.98505 16.91 1.18505C16.81 1.30505 16.71 1.40505 16.61 1.48505C16.49 1.58505 16.37 1.62505 16.21 1.64505C15.25 1.78505 13.73 2.00505 11.65 2.36505C9.57001 2.70505 7.51001 3.10505 5.49001 3.56505C3.45001 4.00505 2.03001 4.46505 1.21001 4.92505C0.870009 5.18505 0.750009 5.44505 0.850009 5.74505C0.950009 6.02505 1.21001 6.14505 1.63001 6.08505ZM19.4276 14.6451C19.7676 14.5851 20.1876 14.3651 20.6876 14.0451C21.2076 13.7051 21.6676 13.3651 22.1076 13.0251C22.5476 12.6651 22.8076 12.4451 22.9076 12.3251C22.6876 12.8051 22.3676 13.5851 21.9476 14.6051C21.5076 15.6451 21.1676 16.525 20.9276 17.285C20.8276 17.605 20.9076 17.865 21.1276 18.045C21.3476 18.245 21.5876 18.305 21.8676 18.285C22.1476 18.245 22.3476 18.085 22.4276 17.785C22.8676 15.885 23.7476 13.665 25.0476 11.085C26.3476 8.50505 27.8876 5.84505 29.6676 3.08505C29.8876 2.70505 29.9076 2.38505 29.7276 2.12505C29.5476 1.86505 29.3076 1.72505 28.9876 1.70505C28.6676 1.68505 28.4076 1.82505 28.1876 2.14505C27.2276 3.86505 26.4876 5.18505 26.0076 6.10505C25.6476 6.80505 25.3076 7.40505 25.0076 7.92505C24.7076 8.44505 24.3476 8.98505 23.9476 9.54505C23.3476 10.3851 22.4676 11.305 21.2676 12.265C20.5676 12.845 20.0476 13.165 19.7476 13.265C19.4276 13.365 19.2276 13.305 19.1876 13.085C19.1476 12.865 19.1676 12.5851 19.2876 12.2251C19.3876 11.8451 19.5276 11.5051 19.6676 11.1651C19.8276 10.8051 19.9476 10.5651 20.0276 10.4051C20.0876 10.2851 20.0476 10.1451 19.9476 10.0051C19.8476 9.86505 19.7076 9.76505 19.5476 9.68505C19.3876 9.60505 19.2276 9.60505 19.1076 9.66505C18.9276 9.76505 18.7076 9.92505 18.4876 10.1251C17.8476 9.50505 17.1476 9.52505 16.3876 10.2051C14.2876 11.9651 13.1076 13.3851 12.8476 14.4851C12.5876 15.5851 12.8876 16.0251 13.7276 15.7851C14.0476 15.6451 14.4676 15.365 14.9876 14.925C15.5276 14.485 16.0676 14.0051 16.6076 13.5251C17.1276 13.0251 17.5676 12.6451 17.9076 12.3651C17.7276 13.2651 17.8076 13.8851 18.1276 14.2451C18.4676 14.6051 18.9076 14.7451 19.4276 14.6451ZM15.0076 13.2451L15.2476 12.9651C15.4076 12.7851 15.6076 12.5851 15.8276 12.3651C16.0676 12.1251 16.2676 11.945 16.4676 11.765C16.6676 11.605 16.8076 11.5251 16.8876 11.5251C16.8076 11.6251 16.6676 11.7651 16.4876 11.9451C16.2876 12.1451 16.0676 12.3451 15.8476 12.5451C15.6276 12.7651 15.4276 12.9251 15.2676 13.0651C15.1076 13.2051 15.0076 13.2651 15.0076 13.2451ZM34.1322 4.52505C34.5922 3.70505 35.0322 3.00505 35.4522 2.40505C35.6922 2.02505 35.8722 1.74505 35.9722 1.56505C36.1122 1.30505 36.0922 1.06505 35.9722 0.84505C35.8322 0.62505 35.6322 0.54505 35.3322 0.56505C35.0522 0.58505 34.7322 0.82505 34.3722 1.26505C30.9922 5.88505 28.2522 10.8051 26.1922 16.0251L26.1322 16.1651C25.7922 16.9651 25.4522 17.865 25.1522 18.885C25.0922 19.125 25.1722 19.305 25.3922 19.445C25.5922 19.585 25.8322 19.645 26.0922 19.625C26.3322 19.625 26.5122 19.5251 26.5922 19.3251C26.8722 18.4451 27.2722 17.4051 27.7522 16.1851C28.2522 14.965 28.6922 13.9251 29.0722 13.0651C29.3722 13.5451 29.9922 13.785 30.9322 13.765C31.8722 13.745 33.0122 13.5651 34.3322 13.2451C35.6322 12.9051 36.7122 12.5651 37.5122 12.2251C37.7722 12.1051 37.8922 11.965 37.9322 11.765C37.9522 11.565 37.8722 11.405 37.7322 11.265C37.5722 11.145 37.3722 11.1051 37.1122 11.1651C36.3722 11.4451 35.6122 11.6851 34.8322 11.8851C34.0522 12.0851 33.3522 12.245 32.7122 12.345C32.0722 12.445 31.5122 12.4851 31.0322 12.4651C30.5522 12.4451 30.4522 12.285 30.7322 12.005C31.3722 11.465 32.1722 11.0451 33.1122 10.7251C33.3922 10.6051 33.5122 10.4051 33.5122 10.1451C33.4922 9.88505 33.3922 9.66505 33.1722 9.48505C32.9722 9.30505 32.7122 9.24505 32.4122 9.34505C32.0522 9.48505 31.6722 9.70505 31.2522 10.0051C30.8322 10.2851 30.5322 10.5051 30.3322 10.6651C30.3522 10.4651 30.5722 9.98505 30.9922 9.24505C31.3922 8.48505 31.8322 7.72505 32.2922 6.94505C32.7522 6.18505 33.0722 5.66505 33.2322 5.38505C33.3322 5.24505 33.4122 5.14505 33.4722 5.10505C33.5322 5.06505 33.5922 5.02505 33.6522 5.02505C33.7122 5.00505 33.7922 4.96505 33.8722 4.90505C33.9322 4.84505 34.0322 4.72505 34.1322 4.52505ZM37.6344 9.56505C37.2744 10.0051 36.8344 10.685 36.2944 11.585C35.7544 12.485 35.4944 13.325 35.5144 14.085C35.7344 15.145 36.2544 15.6651 37.0944 15.6451C37.9344 15.6251 38.8744 15.3251 39.9344 14.7251C40.9944 14.1251 41.9544 13.4851 42.8344 12.7851C43.7144 12.0851 44.2944 11.5851 44.6144 11.2851C44.7944 11.0851 44.8744 10.9251 44.8344 10.7651C44.7944 10.6051 44.7144 10.5051 44.5544 10.4451C44.4144 10.3851 44.2544 10.4251 44.0944 10.5251C44.0744 10.5451 44.0344 10.5851 43.9544 10.6451C43.6744 10.8651 43.1744 11.2651 42.4344 11.8051C41.6944 12.3451 40.8944 12.8651 40.0144 13.3651C39.1344 13.8651 38.3144 14.165 37.5944 14.265C37.1144 14.305 36.9144 14.1251 36.9944 13.7251C37.0544 13.3251 37.2944 12.8251 37.6744 12.2451C38.0544 11.6451 38.4544 11.0651 38.8944 10.5051C39.0544 10.2451 39.0544 10.0251 38.8944 9.80505C38.7344 9.60505 38.5344 9.46505 38.2744 9.40505C37.9944 9.34505 37.7944 9.38505 37.6344 9.56505ZM38.8144 8.34505C38.7344 8.70505 38.7544 8.92505 38.8744 8.98505C39.0544 9.02505 39.3344 8.92505 39.7144 8.64505C40.0944 8.38505 40.4544 8.06505 40.8144 7.68505C41.1544 7.32505 41.3744 7.00505 41.4744 6.76505C41.5344 6.54505 41.4544 6.40505 41.2344 6.32505C41.0344 6.24505 40.7944 6.20505 40.5344 6.22505C40.2744 6.22505 40.0744 6.28505 39.9544 6.36505C39.7144 6.54505 39.4744 6.84505 39.2744 7.22505C39.0544 7.62505 38.9144 8.00505 38.8144 8.34505ZM44.2611 9.46505C43.3211 11.0451 42.5411 12.5051 41.9211 13.8851C41.8211 14.1651 41.8411 14.4051 41.9811 14.6251C42.1211 14.8251 42.3211 14.9651 42.5411 15.0451C42.7811 15.1251 42.9811 15.0851 43.1611 14.9651C43.3611 14.7651 43.7211 14.385 44.2411 13.845L45.6411 12.425C46.1211 11.945 46.5211 11.545 46.8411 11.265C47.1811 10.985 47.3211 10.9051 47.3011 11.0451C47.2411 11.2051 47.1611 11.3851 47.0611 11.6051C46.8011 12.1251 46.6011 12.6851 46.4411 13.2851C46.2811 13.8851 46.3811 14.3051 46.7811 14.5651C47.4411 14.8451 48.3411 14.665 49.4611 14.085C50.5811 13.485 51.5811 12.8451 52.5011 12.1251C52.7211 11.9451 52.8211 11.7651 52.8211 11.5651C52.8011 11.3651 52.7211 11.2251 52.5611 11.1251C52.4011 11.0451 52.2011 11.0651 51.9811 11.2251C51.9611 11.2251 51.9411 11.2451 51.9411 11.2451C51.7211 11.4051 51.3611 11.6651 50.8211 12.0251C50.3011 12.3851 49.7611 12.7051 49.2011 12.9851C48.6411 13.2651 48.2211 13.3651 47.9211 13.2851C47.8411 13.2451 47.8611 13.0451 48.0211 12.7251C48.1611 12.4051 48.3411 12.0451 48.5611 11.6251L49.0011 10.7851C49.1211 10.5251 49.2011 10.3251 49.2411 10.1651C49.2811 9.96505 49.2211 9.74505 49.0811 9.54505C48.9411 9.32505 48.7811 9.16505 48.5611 9.04505C48.3611 8.92505 48.1611 8.88505 47.9811 8.94505C47.7611 9.04505 47.4011 9.30505 46.9211 9.70505C46.4411 10.0851 45.9611 10.5051 45.5011 10.9251C45.0211 11.3451 44.7011 11.645 44.5011 11.845C44.5011 11.765 44.5611 11.6451 44.6611 11.4651C44.7811 11.3051 44.9211 11.1051 45.0811 10.8651C45.2211 10.6851 45.3611 10.4651 45.5011 10.2651C45.6211 10.0651 45.6011 9.86505 45.4611 9.64505C45.3011 9.44505 45.1011 9.30505 44.8611 9.24505C44.6211 9.18505 44.4211 9.26505 44.2611 9.46505ZM48.8525 25.8251C49.6725 24.8251 50.4725 23.725 51.2325 22.525C51.9125 21.485 52.4325 20.745 52.8325 20.345L53.9525 19.265C56.4125 16.785 59.4525 14.125 63.0725 11.265C63.3125 11.065 63.4325 10.8251 63.4125 10.5451C63.4125 10.2851 63.3325 10.0651 63.1725 9.90505C63.0125 9.74505 62.8325 9.74505 62.6125 9.90505C60.6125 11.5251 58.8925 13.005 57.4725 14.345C56.4525 15.265 55.6925 15.9251 55.1525 16.3651C55.3325 16.0851 55.6725 15.4651 56.1525 14.4851C56.6325 13.5251 57.0325 12.5251 57.3725 11.4851C57.7125 10.4451 57.7525 9.68505 57.5125 9.22505C57.3925 9.04505 57.2325 8.96505 57.0525 8.98505C56.8525 9.00505 56.6725 9.06505 56.5125 9.18505L56.1525 9.42505C56.1325 9.42505 56.1325 9.44505 56.1125 9.44505C56.0125 9.38505 55.8925 9.26505 55.7725 9.10505C55.6725 8.98505 55.5725 8.86505 55.4525 8.74505C55.3325 8.64505 55.1925 8.58505 55.0325 8.58505C54.6125 8.62505 54.0525 8.94505 53.3725 9.54505C52.6725 10.1651 52.0125 10.8451 51.3725 11.6251C50.7125 12.4051 50.2125 13.0651 49.8925 13.6251C49.5325 14.2451 49.3925 14.7651 49.4525 15.1851C49.5325 15.605 49.8325 15.7651 50.3525 15.6451C50.7125 15.5251 51.2125 15.205 51.8325 14.6851C52.4525 14.1651 53.0925 13.5851 53.7725 12.9451C54.7325 12.0451 55.5325 11.3451 56.1725 10.8851C55.8325 12.1451 55.3725 13.2851 54.8125 14.3051C54.2325 15.3251 53.5725 16.3451 52.8525 17.4051C52.7325 17.5851 52.5925 17.7851 52.4725 17.9851C51.9725 18.6651 51.2725 19.445 50.3925 20.305C49.4325 21.225 48.4725 22.2851 47.4925 23.4851C47.2125 23.9051 47.1325 24.3651 47.2725 24.8251C47.3925 25.3051 47.6125 25.645 47.9325 25.885C48.2525 26.125 48.5725 26.1051 48.8525 25.8251Z" fill="#3E3E3E"/>
</svg>
